<svg xmlns="http://www.w3.org/2000/svg" viewBox="0 0 1800 2255" height="2255" xmlns:xlink="http://www.w3.org/1999/xlink" xmlns:ev="http://www.w3.org/2001/xml-events" width="1800"><style type="text/css"><![CDATA[
.st4 {fill:#000000;font-family:sans-serif;font-size:27pt}
.st5 {fill:#1bbc9d;font-family:sans-serif;font-size:27pt}
.st9 {fill:#1bbc9d}
.st1 {fill:#1f6391;font-family:sans-serif;font-size:27pt}
.st6 {fill:#527294;font-family:sans-serif;font-size:27pt}
.st2 {fill:#dd7195;font-family:sans-serif;font-size:27pt}
.st8 {fill:#dd7195}
.st3 {fill:#ee7c31;font-family:sans-serif;font-size:27pt}
.st7 {fill:#ee7c31}
]]></style><defs/><g transform="translate(5,5)" id="page1"><rect stroke="#808080" height="2245" x="0" y="0" fill="#ffffff" width="2381"/><path transform="matrix(0,-1,1,0,665.8,421.1)" stroke="#dd7195" d="M0,7.6L-37.8,7.6L-37.8,0L0,0C26.5,0,48,21.5,48,48L48,88L40,88L40,48C40,27,21,7.6,0,7.6z" fill="#dd7195" id="shape1"/><path transform="translate(1445.3,1521)" stroke="#527294" d="M0,0L8,0L8,146.9L0,146.9L0,0z" fill="#527294" id="shape2"/><path transform="translate(1213.3,1479.92)" stroke="#527294" d="M0,0L188,0L188,8L0,8L0,0z" fill="#527294" id="shape3"/><path transform="translate(1510.82,1290)" stroke="#1bbc9d" d="M0,0L8,0L8,250L0,250L0,0z" fill="#1bbc9d" id="shape4"/><path transform="matrix(-1,0,0,-1,980.8,1989)" stroke="#1bbc9d" d="M0,7.6L-37.8,7.6L-37.8,0L0,0C26.5,0,48,21.5,48,48L48,88L40,88L40,48C40,27,21,7.6,0,7.6z" fill="#1bbc9d" id="shape5"/><path transform="translate(932.82,1806.7)" stroke="#1bbc9d" d="M0,0L8,0L8,130.3L0,130.3L0,0z" fill="#1bbc9d" id="shape6"/><path transform="translate(849.82,1211.8)" stroke="#000000" d="M0,0L8,0L8,442.2L0,442.2L0,0z" fill="#000000" id="shape7"/><path transform="translate(654.82,1729.7)" stroke="#000000" d="M0,0L134.5,0L134.5,8L0,8L0,0z" fill="#000000" id="shape8"/><path transform="matrix(0,-1,1,0,849.8,1187)" stroke="#000000" d="M0,7.6L-37.8,7.6L-37.8,0L0,0C26.5,0,48,21.5,48,48L48,67.5L40,67.5L40,48C40,27,21,7.6,0,7.6z" fill="#000000" id="shape9"/><path transform="translate(1510.82,959)" stroke="#ee7c31" d="M0,0L8,0L8,331L0,331L0,0z" fill="#ee7c31" id="shape10"/><path transform="translate(326.3,875)" stroke="#ee7c31" d="M0,0L1113.5,0L1113.5,8L0,8L0,0z" fill="#ee7c31" id="shape11"/><path transform="translate(1061.82,458)" stroke="#dd7195" d="M0,0L8,0L8,1270.7L0,1270.7L0,0z" fill="#dd7195" id="shape12"/><path transform="matrix(-1,-0,0,-1,713.8,1814.7)" stroke="#dd7195" d="M0,7.6L-37.8,7.6L-37.8,0L0,0C26.5,0,48,21.5,48,48L48,88L40,88L40,48C40,27,21,7.6,0,7.6z" fill="#dd7195" id="shape13"/><path transform="translate(665.82,454)" stroke="#dd7195" d="M0,0L8,0L8,1274.7L0,1274.7L0,0z" fill="#dd7195" id="shape14"/><path transform="matrix(0,-1,1,0,513.8,1164.7)" stroke="#3498db" d="M0,7.6L-37.8,7.6L-37.8,0L0,0C26.5,0,48,21.5,48,48L48,88L40,88L40,48C40,27,21,7.6,0,7.6z" fill="#3498db" id="shape15"/><path transform="translate(513.82,1194.5)" stroke="#3498db" d="M0,0L8,0L8,188L0,188L0,0z" fill="#3498db" id="shape16"/><path transform="matrix(-1,-0,0,-1,561.8,1465.7)" stroke="#3498db" d="M0,7.6L-37.8,7.6L-37.8,0L0,0C26.5,0,48,21.5,48,48L48,88L40,88L40,48C40,27,21,7.6,0,7.6z" fill="#3498db" id="shape17"/><path transform="translate(591.84,1457.92)" stroke="#3498db" d="M0,0L829,0L829,8L0,8L0,0z" fill="#3498db" id="shape18"/><g transform="translate(510.04,1280.72)" id="shape19"><path stroke="#3498db" d="M0,8C0,3.6,3.6,0,8,0C12.4,0,16,3.6,16,8C16,12.4,12.4,16,8,16C3.6,16,0,12.4,0,8z" stroke-width="3" fill="#ffffff"/><text transform="matrix(0.65,0.76,-0.76,0.65,-1.6,-0.4)" class="st1"><tspan x="-207.6" y="7.6">Los Alamos</tspan></text></g><g transform="translate(661.82,1446.92)"><path transform="matrix(0,1,-1,0,16,0)" stroke="#3498db" d="M15,0L7.5,0C3.4,0,0,3.6,0,8C0,12.4,3.4,16,7.5,16L15,16" stroke-width="3" fill="#ffffff" id="shape20"/><path transform="matrix(0,1,-1,0,16,15)" stroke="#dd7195" d="M0,0L7.5,0C11.6,0,15,3.6,15,8C15,12.4,11.6,16,7.5,16L0,16" stroke-width="3" fill="#ffffff" id="shape21"/><text transform="matrix(0.66,0.75,-0.75,0.66,-0.9,-2.6)" class="st2"><tspan x="-156.3" y="10.3">Bradford</tspan></text></g><path transform="translate(594.04,1116.92)" stroke="#3498db" d="M0,0L816.8,0L816.8,8L0,8L0,0z" fill="#3498db" id="shape22"/><g transform="translate(661.82,1105.92)"><path transform="matrix(0,1,-1,0,16,0)" stroke="#3498db" d="M15,0L7.5,0C3.4,0,0,3.6,0,8C0,12.4,3.4,16,7.5,16L15,16" stroke-width="3" fill="#ffffff" id="shape23"/><path transform="matrix(0,1,-1,0,16,15)" stroke="#dd7195" d="M0,0L7.5,0C11.6,0,15,3.6,15,8C15,12.4,11.6,16,7.5,16L0,16" stroke-width="3" fill="#ffffff" id="shape24"/><text transform="matrix(0.66,0.75,-0.75,0.66,-0.9,-2.6)" class="st1"><tspan x="-143.1" y="10.3">Badland</tspan></text></g><path transform="translate(1448.82,1116.92)" stroke="#3498db" d="M0,7.6L-37.8,7.6L-37.8,0L0,0C26.5,0,48,21.5,48,48L48,88L40,88L40,48C40,27,21,7.6,0,7.6z" fill="#3498db" id="shape25"/><path transform="matrix(0,1,-1,0,1496.8,1417.9)" stroke="#3498db" d="M0,7.6L-37.8,7.6L-37.8,0L0,0C26.5,0,48,21.5,48,48L48,88L40,88L40,48C40,27,21,7.6,0,7.6z" fill="#3498db" id="shape26"/><path transform="translate(1488.82,1196.92)" stroke="#3498db" d="M0,0L8,0L8,188L0,188L0,0z" fill="#3498db" id="shape27"/><g transform="translate(1057.82,1446.92)"><path transform="matrix(0,1,-1,0,16,0)" stroke="#3498db" d="M15,0L7.5,0C3.4,0,0,3.6,0,8C0,12.4,3.4,16,7.5,16L15,16" stroke-width="3" fill="#ffffff" id="shape28"/><path transform="matrix(0,1,-1,0,16,15)" stroke="#dd7195" d="M0,0L7.5,0C11.6,0,15,3.6,15,8C15,12.4,11.6,16,7.5,16L0,16" stroke-width="3" fill="#ffffff" id="shape29"/><text transform="matrix(0.66,0.75,-0.75,0.66,-0.9,-2.6)" class="st1"><tspan x="-188.1" y="10.3">Camp Nou</tspan></text></g><path transform="matrix(0,1,-1,0,1069.8,1766.7)" stroke="#dd7195" d="M0,7.6L-37.8,7.6L-37.8,0L0,0C26.5,0,48,21.5,48,48L48,88L40,88L40,48C40,27,21,7.6,0,7.6z" fill="#dd7195" id="shape30"/><g transform="translate(654.82,1725.7)"><path stroke="#dd7195" d="M15,0L7.5,0C3.4,0,0,3.6,0,8C0,12.4,3.4,16,7.5,16L15,16" stroke-width="3" fill="#ffffff" id="shape31"/><path transform="translate(15,0)" stroke="#000000" d="M0,0L7.5,0C11.6,0,15,3.6,15,8C15,12.4,11.6,16,7.5,16L0,16" stroke-width="3" fill="#ffffff" id="shape32"/><text transform="matrix(0.65,0.76,-0.76,0.65,-1.8,0.1)" class="st2"><tspan x="-217" y="10.6">Mount Hyjal</tspan></text></g><path transform="translate(731.82,1806.7)" stroke="#dd7195" d="M0,0L249,0L249,8L0,8L0,0z" fill="#dd7195" id="shape33"/><g transform="translate(1057.82,1724.9)" id="shape34"><path stroke="#dd7195" d="M0,8C0,3.6,3.6,0,8,0C12.4,0,16,3.6,16,8C16,12.4,12.4,16,8,16C3.6,16,0,12.4,0,8z" stroke-width="3" fill="#ffffff"/><text transform="matrix(0.65,0.76,-0.76,0.65,-1.6,-0.4)" class="st2"><tspan x="-266.8" y="-13.9">Tiangongyuan </tspan><tspan x="-78.8" y="29.1">East</tspan></text></g><g transform="translate(661.82,680)" id="shape35"><path stroke="#dd7195" d="M0,8C0,3.6,3.6,0,8,0C12.4,0,16,3.6,16,8C16,12.4,12.4,16,8,16C3.6,16,0,12.4,0,8z" stroke-width="3" fill="#ffffff"/><text transform="matrix(0.65,0.76,-0.76,0.65,-1.6,-0.4)" class="st2"><tspan x="-155.1" y="-13.9">Burning </tspan><tspan x="-145.1" y="29.1">Steppes</tspan></text></g><g transform="translate(661.82,487)" id="shape36"><path stroke="#dd7195" d="M0,8C0,3.6,3.6,0,8,0C12.4,0,16,3.6,16,8C16,12.4,12.4,16,8,16C3.6,16,0,12.4,0,8z" stroke-width="3" fill="#ffffff"/><text transform="matrix(0.65,0.76,-0.76,0.65,-1.6,-0.4)" class="st2"><tspan x="-169.8" y="-13.9">Wetland  </tspan><tspan x="-164.8" y="29.1">Reserved</tspan></text></g><path transform="translate(745.82,373.1)" stroke="#dd7195" d="M0,0L248.8,0L248.8,8L0,8L0,0z" fill="#dd7195" id="shape37"/><path transform="translate(1021.82,373.32)" stroke="#dd7195" d="M0,7.6L-37.8,7.6L-37.8,0L0,0C26.5,0,48,21.5,48,48L48,88L40,88L40,48C40,27,21,7.6,0,7.6z" fill="#dd7195" id="shape38"/><g transform="translate(1057.82,680)" id="shape39"><path stroke="#dd7195" d="M0,8C0,3.6,3.6,0,8,0C12.4,0,16,3.6,16,8C16,12.4,12.4,16,8,16C3.6,16,0,12.4,0,8z" stroke-width="3" fill="#ffffff"/><text transform="matrix(0.65,0.76,-0.76,0.65,-1.6,-0.4)" class="st2"><tspan x="-187" y="7.6">Oak Ridge</tspan></text></g><g transform="translate(784.3,369.32)" id="shape40"><path stroke="#dd7195" d="M0,8C0,3.6,3.6,0,8,0C12.4,0,16,3.6,16,8C16,12.4,12.4,16,8,16C3.6,16,0,12.4,0,8z" stroke-width="3" fill="#ffffff"/><text transform="matrix(0.65,0.76,-0.76,0.65,-1.6,-0.4)" class="st2"><tspan x="-248.5" y="-13.9">Carbon Valley</tspan><tspan x="-90.5" y="29.1">West</tspan></text></g><g transform="translate(934.3,369.32)" id="shape41"><path stroke="#dd7195" d="M0,8C0,3.6,3.6,0,8,0C12.4,0,16,3.6,16,8C16,12.4,12.4,16,8,16C3.6,16,0,12.4,0,8z" stroke-width="3" fill="#ffffff"/><text transform="matrix(0.65,0.76,-0.76,0.65,-1.6,-0.4)" class="st2"><tspan x="-248.5" y="-13.9">Carbon Valley</tspan><tspan x="-90.5" y="29.1">East </tspan></text></g><g transform="translate(1057.82,864)"><path transform="matrix(0,1,-1,0,16,0)" stroke="#ee7c31" d="M15,0L7.5,0C3.4,0,0,3.6,0,8C0,12.4,3.4,16,7.5,16L15,16" stroke-width="3" fill="#ffffff" id="shape42"/><path transform="matrix(0,1,-1,0,16,15)" stroke="#dd7195" d="M0,0L7.5,0C11.6,0,15,3.6,15,8C15,12.4,11.6,16,7.5,16L0,16" stroke-width="3" fill="#ffffff" id="shape43"/><text transform="matrix(0.66,0.75,-0.75,0.66,-0.9,-2.6)" class="st3"><tspan x="-217.9" y="-11.2">Coastal</tspan><tspan x="-217.9" y="31.8">New-Region</tspan></text></g><g transform="translate(661.82,864)"><path transform="matrix(0,1,-1,0,16,0)" stroke="#ee7c31" d="M15,0L7.5,0C3.4,0,0,3.6,0,8C0,12.4,3.4,16,7.5,16L15,16" stroke-width="3" fill="#ffffff" id="shape44"/><path transform="matrix(0,1,-1,0,16,15)" stroke="#dd7195" d="M0,0L7.5,0C11.6,0,15,3.6,15,8C15,12.4,11.6,16,7.5,16L0,16" stroke-width="3" fill="#ffffff" id="shape45"/><text transform="matrix(0.66,0.75,-0.75,0.66,-0.9,-2.6)" class="st2"><tspan x="-164.2" y="10.3">West City</tspan></text></g><g transform="translate(1488.82,1282.92)"><path stroke="#3498db" d="M15,0L7.5,0C3.4,0,0,3.6,0,8C0,12.4,3.4,16,7.5,16L15,16" stroke-width="3" fill="#ffffff" id="shape46"/><path transform="translate(15,0)" stroke="#ee7c31" d="M0,0L7.5,0C11.6,0,15,3.6,15,8C15,12.4,11.6,16,7.5,16L0,16" stroke-width="3" fill="#ffffff" id="shape47"/><text transform="matrix(0.65,0.76,-0.76,0.65,-1.8,0.1)" class="st1"><tspan x="-156.1" y="10.6">East City</tspan></text></g><path transform="translate(1470.82,875)" stroke="#ee7c31" d="M0,7.6L-37.8,7.6L-37.8,0L0,0C26.5,0,48,21.5,48,48L48,88L40,88L40,48C40,27,21,7.6,0,7.6z" fill="#ee7c31" id="shape48"/><g transform="translate(1250.3,871)" id="shape49"><path stroke="#ee7c31" d="M0,8C0,3.6,3.6,0,8,0C12.4,0,16,3.6,16,8C16,12.4,12.4,16,8,16C3.6,16,0,12.4,0,8z" stroke-width="3" fill="#ffffff"/><text transform="matrix(0.65,0.76,-0.76,0.65,-1.6,-0.4)" class="st3"><tspan x="-189.9" y="7.6">Alamo Sea</tspan></text></g><g transform="translate(1405.3,871)" id="shape50"><path stroke="#ee7c31" d="M0,8C0,3.6,3.6,0,8,0C12.4,0,16,3.6,16,8C16,12.4,12.4,16,8,16C3.6,16,0,12.4,0,8z" stroke-width="3" fill="#ffffff"/><text transform="matrix(0.65,0.76,-0.76,0.65,-1.6,-0.4)" class="st3"><tspan x="-204.5" y="7.6">Naxxramas</tspan></text></g><g transform="translate(938.82,871)" id="shape51"><path stroke="#ee7c31" d="M0,8C0,3.6,3.6,0,8,0C12.4,0,16,3.6,16,8C16,12.4,12.4,16,8,16C3.6,16,0,12.4,0,8z" stroke-width="3" fill="#ffffff"/><text transform="matrix(0.65,0.76,-0.76,0.65,-1.6,-0.4)" class="st3"><tspan x="-252" y="7.6">Mount Chiliad</tspan></text></g><g transform="translate(800.32,871)" id="shape52"><path stroke="#ee7c31" d="M0,8C0,3.6,3.6,0,8,0C12.4,0,16,3.6,16,8C16,12.4,12.4,16,8,16C3.6,16,0,12.4,0,8z" stroke-width="3" fill="#ffffff"/><text transform="matrix(0.65,0.76,-0.76,0.65,-1.6,-0.4)" class="st3"><tspan x="-215.4" y="7.6">Tianshuiwei</tspan></text></g><path transform="matrix(0,-1,1,0,267.4,923)" stroke="#ee7c31" d="M0,7.6L-37.8,7.6L-37.8,0L0,0C26.5,0,48,21.5,48,48L48,88L40,88L40,48C40,27,21,7.6,0,7.6z" fill="#ee7c31" id="shape53"/><path transform="translate(267.41,952.8)" stroke="#ee7c31" d="M0,0L8,0L8,115L0,115L0,0z" fill="#ee7c31" id="shape54"/><g transform="translate(346.3,871)" id="shape55"><path stroke="#ee7c31" d="M0,8C0,3.6,3.6,0,8,0C12.4,0,16,3.6,16,8C16,12.4,12.4,16,8,16C3.6,16,0,12.4,0,8z" stroke-width="3" fill="#ffffff"/><text transform="matrix(0.65,0.76,-0.76,0.65,-1.6,-0.4)" class="st3"><tspan x="-166.7" y="7.6">Ginzberg</tspan></text></g><g transform="translate(263.19,1055.78)" id="shape56"><path stroke="#ee7c31" d="M0,8C0,3.6,3.6,0,8,0C12.4,0,16,3.6,16,8C16,12.4,12.4,16,8,16C3.6,16,0,12.4,0,8z" stroke-width="3" fill="#ffffff"/><text transform="matrix(0.65,0.76,-0.76,0.65,-1.6,-0.4)" class="st3"><tspan x="-180.5" y="7.6">Las Vegas</tspan></text></g><g transform="translate(913.3,1116.7)"><path transform="matrix(0,1,-1,0,16,0)" stroke="#3498db" d="M15,0L7.5,0C3.4,0,0,3.6,0,8C0,12.4,3.4,16,7.5,16L15,16" stroke-width="3" fill="#ffffff" id="shape57"/><path transform="matrix(0,1,-1,0,16,15)" stroke="#000000" d="M0,0L7.5,0C11.6,0,15,3.6,15,8C15,12.4,11.6,16,7.5,16L0,16" stroke-width="3" fill="#ffffff" id="shape58"/><text transform="matrix(0.66,0.75,-0.75,0.66,-0.9,-2.6)" class="st1"><tspan x="-115.7" y="10.3">Skyfall</tspan></text></g><path transform="matrix(0,1,-1,0,857.8,1689.7)" stroke="#000000" d="M0,7.6L-37.8,7.6L-37.8,0L0,0C26.5,0,48,21.5,48,48L48,71.5L40,71.5L40,48C40,27,21,7.6,0,7.6z" fill="#000000" id="shape59"/><g transform="translate(845.82,1446.92)"><path transform="matrix(0,1,-1,0,16,0)" stroke="#3498db" d="M15,0L7.5,0C3.4,0,0,3.6,0,8C0,12.4,3.4,16,7.5,16L15,16" stroke-width="3" fill="#ffffff" id="shape60"/><path transform="matrix(0,1,-1,0,16,15)" stroke="#000000" d="M0,0L7.5,0C11.6,0,15,3.6,15,8C15,12.4,11.6,16,7.5,16L0,16" stroke-width="3" fill="#ffffff" id="shape61"/><text transform="matrix(0.66,0.75,-0.75,0.66,-0.9,-2.6)" class="st1"><tspan x="-153.8" y="-11.2">Galaxy   </tspan><tspan x="-153.8" y="31.8">Airport</tspan></text></g><g transform="translate(845.82,1647.9)" id="shape62"><path stroke="#000000" d="M0,8C0,3.6,3.6,0,8,0C12.4,0,16,3.6,16,8C16,12.4,12.4,16,8,16C3.6,16,0,12.4,0,8z" stroke-width="3" fill="#ffffff"/><text transform="matrix(0.65,0.76,-0.76,0.65,-1.6,-0.4)" class="st4"><tspan x="-188.2" y="7.6">Airport T2</tspan></text></g><g transform="translate(845.82,1266)" id="shape63"><path stroke="#000000" d="M0,8C0,3.6,3.6,0,8,0C12.4,0,16,3.6,16,8C16,12.4,12.4,16,8,16C3.6,16,0,12.4,0,8z" stroke-width="3" fill="#ffffff"/><text transform="matrix(0.65,0.76,-0.76,0.65,-1.6,-0.4)" class="st4"><tspan x="-229.9" y="7.6">Train Station</tspan></text></g><path transform="translate(993.3,1981)" stroke="#1bbc9d" d="M0,0L264,0L264,8L0,8L0,0z" fill="#1bbc9d" id="shape64"/><path transform="translate(1510.82,1470)" stroke="#1bbc9d" d="M8,0L8,94L8,96.3L-255.1,521.1L-261.9,516.9L0,94L0,0L8,0z" fill="#1bbc9d" id="shape65"/><g transform="translate(981.82,1977)" id="shape66"><path stroke="#1bbc9d" d="M0,8C0,3.6,3.6,0,8,0C12.4,0,16,3.6,16,8C16,12.4,12.4,16,8,16C3.6,16,0,12.4,0,8z" stroke-width="3" fill="#ffffff"/><text transform="matrix(0.65,-0.76,0.76,0.65,7.2,11.8)" class="st5"><tspan x="25.4" y="10.6">King's Cross Square West</tspan></text></g><g transform="translate(1104.3,1977)" id="shape67"><path stroke="#1bbc9d" d="M0,8C0,3.6,3.6,0,8,0C12.4,0,16,3.6,16,8C16,12.4,12.4,16,8,16C3.6,16,0,12.4,0,8z" stroke-width="3" fill="#ffffff"/><text transform="matrix(0.65,-0.76,0.76,0.65,7.2,11.8)" class="st5"><tspan x="19.4" y="-10.9">King's Cross Square</tspan><tspan x="19.4" y="32.1"> East</tspan></text></g><g transform="translate(1244.3,1977)" id="shape68"><path stroke="#1bbc9d" d="M0,8C0,3.6,3.6,0,8,0C12.4,0,16,3.6,16,8C16,12.4,12.4,16,8,16C3.6,16,0,12.4,0,8z" stroke-width="3" fill="#ffffff"/><text class="st5"><tspan x="-86.6" y="57">South Lake</tspan></text></g><g transform="translate(1299.3,1457.92)"><path transform="matrix(0,1,-1,0,16,0)" stroke="#3498db" d="M15,0L7.5,0C3.4,0,0,3.6,0,8C0,12.4,3.4,16,7.5,16L15,16" stroke-width="3" fill="#ffffff" id="shape69"/><path transform="matrix(0,1,-1,0,16,15)" stroke="#527294" d="M0,0L7.5,0C11.6,0,15,3.6,15,8C15,12.4,11.6,16,7.5,16L0,16" stroke-width="3" fill="#ffffff" id="shape70"/><text transform="matrix(0.66,0.75,-0.75,0.66,-0.9,-2.6)" class="st6"><tspan x="-208.8" y="-11.2">        Mimi</tspan><tspan x="-208.8" y="31.8">University   </tspan></text></g><g transform="translate(1441.3,1651.91)"><path transform="matrix(0,1,-1,0,16,0)" stroke="#527294" d="M15,0L7.5,0C3.4,0,0,3.6,0,8C0,12.4,3.4,16,7.5,16L15,16" stroke-width="3" fill="#ffffff" id="shape71"/><path transform="matrix(0,1,-1,0,16,15)" stroke="#1bbc9d" d="M0,0L7.5,0C11.6,0,15,3.6,15,8C15,12.4,11.6,16,7.5,16L0,16" stroke-width="3" fill="#ffffff" id="shape72"/><text transform="matrix(0.66,0.75,-0.75,0.66,-0.9,-2.6)" class="st6"><tspan x="-131.6" y="10.3">MU Lab</tspan></text></g><path transform="translate(1405.3,1479.92)" stroke="#527294" d="M0,7.6L-37.8,7.6L-37.8,0L0,0C26.5,0,48,21.5,48,48L48,88L40,88L40,48C40,27,21,7.6,0,7.6z" fill="#527294" id="shape73"/><path transform="matrix(0,-1,1,0,1151.3,1527.9)" stroke="#527294" d="M0,7.6L-97.1,7.6L-97.1,0L0,0C26.5,0,48,21.5,48,48L48,88L40,88L40,48C40,27,21,7.6,0,7.6z" fill="#527294" id="shape74"/><g transform="translate(865.56,1255)"><path stroke="#3498db" d="M6,0L34,0C37.3,0,40,2.7,40,6L40,32C40,35.3,37.3,38,34,38L6,38C2.7,38,0,35.3,0,32L0,6C0,2.7,2.7,0,6,0z" fill="#3498db" id="shape75"/><g transform="translate(7.62,5.34)"><path stroke="#ffffff" d="M8,21.9L6.2,24.3C6.2,24.3,-1.4,20,.2,11.5C1.9,2.7,10,1.6,10,1.6C10,1.6,9.5,1.1,10.2,.5C11,-0.2,14.1,-0.1,14.5,.5C15,1.1,14.6,1.6,14.6,1.6C14.6,1.6,23,2.6,24.6,11.5C26.1,20.4,18.3,24.3,18.5,24.3L16.4,21.9C16.4,21.9,22.8,18.5,21.6,12.3C20.1,5,14.6,4.3,12.4,4.2C10.2,4.2,4.3,5.5,3.2,11.9C1.9,18.8,8,21.9,8,21.9z" fill="#ffffff" id="shape76"/><path transform="translate(4.15,11.43)" stroke="#ffffff" d="M5.7,0C5.7,0,3.9,-0.2,3.9,1.8C3.9,3.8,3.9,4,3.9,4.1C3.9,4.1,3.9,5.2,5.3,5.3C6.6,5.5,7.2,5.7,7.2,6.9C7.2,8.1,7.2,12.5,7.2,12.5C7.2,12.5,7.4,14.4,4.8,14.8C2.3,15.1,0,15.5,0,15.5L0,16.7L16.6,16.7L16.6,15.5C16.6,15.5,11.5,14.9,11.1,14.8C10,14.4,9,13.8,9,12.5C9,11.1,9,6.9,9,6.9C9,6.9,8.8,5.5,10.6,5.4C11.6,5.3,12.2,5,12.3,4.2C12.3,3.5,12.3,1.8,12.3,1.8C12.3,1.8,12.5,0,10.6,0C8.7,0,5.7,0,5.7,0z" fill="#ffffff" id="shape77"/></g></g><g transform="translate(802.08,1533.46)"><path stroke="#3498db" d="M6,0L34,0C37.3,0,40,2.7,40,6L40,32C40,35.3,37.3,38,34,38L6,38C2.7,38,0,35.3,0,32L0,6C0,2.7,2.7,0,6,0z" fill="#3498db" id="shape78"/><path transform="translate(4.8,3.8)" stroke="#3498db" d="M0,18.2L12.8,10.9L12.8,3C12.8,3,13.4,0,15.2,0C17,0,17.6,3,17.6,3L17.6,10.9L30.4,18.2L30.4,21.9L17.6,17.9L17.6,24.3L21,27.1L21,30.4L15.2,27.4L9.4,30.4L9.4,27.1L12.8,24.3L12.8,17.9L0,21.9L0,18.2z" fill="#ffffff" id="shape79"/></g><g transform="translate(1200.3,709)"><path stroke="#3498db" d="M6,0L34,0C37.3,0,40,2.7,40,6L40,32C40,35.3,37.3,38,34,38L6,38C2.7,38,0,35.3,0,32L0,6C0,2.7,2.7,0,6,0z" fill="#3498db" id="shape80"/><g transform="translate(7.62,5.34)"><path stroke="#ffffff" d="M8,21.9L6.2,24.3C6.2,24.3,-1.4,20,.2,11.5C1.9,2.7,10,1.6,10,1.6C10,1.6,9.5,1.1,10.2,.5C11,-0.2,14.1,-0.1,14.5,.5C15,1.1,14.6,1.6,14.6,1.6C14.6,1.6,23,2.6,24.6,11.5C26.1,20.4,18.3,24.3,18.5,24.3L16.4,21.9C16.4,21.9,22.8,18.5,21.6,12.3C20.1,5,14.6,4.3,12.4,4.2C10.2,4.2,4.3,5.5,3.2,11.9C1.9,18.8,8,21.9,8,21.9z" fill="#ffffff" id="shape81"/><path transform="translate(4.15,11.43)" stroke="#ffffff" d="M5.7,0C5.7,0,3.9,-0.2,3.9,1.8C3.9,3.8,3.9,4,3.9,4.1C3.9,4.1,3.9,5.2,5.3,5.3C6.6,5.5,7.2,5.7,7.2,6.9C7.2,8.1,7.2,12.5,7.2,12.5C7.2,12.5,7.4,14.4,4.8,14.8C2.3,15.1,0,15.5,0,15.5L0,16.7L16.6,16.7L16.6,15.5C16.6,15.5,11.5,14.9,11.1,14.8C10,14.4,9,13.8,9,12.5C9,11.1,9,6.9,9,6.9C9,6.9,8.8,5.5,10.6,5.4C11.6,5.3,12.2,5,12.3,4.2C12.3,3.5,12.3,1.8,12.3,1.8C12.3,1.8,12.5,0,10.6,0C8.7,0,5.7,0,5.7,0z" fill="#ffffff" id="shape82"/></g></g><g transform="translate(371.3,953.02)"><path stroke="#3498db" d="M6,0L34,0C37.3,0,40,2.7,40,6L40,32C40,35.3,37.3,38,34,38L6,38C2.7,38,0,35.3,0,32L0,6C0,2.7,2.7,0,6,0z" fill="#3498db" id="shape83"/><g transform="translate(7.62,5.34)"><path stroke="#ffffff" d="M8,21.9L6.2,24.3C6.2,24.3,-1.4,20,.2,11.5C1.9,2.7,10,1.6,10,1.6C10,1.6,9.5,1.1,10.2,.5C11,-0.2,14.1,-0.1,14.5,.5C15,1.1,14.6,1.6,14.6,1.6C14.6,1.6,23,2.6,24.6,11.5C26.1,20.4,18.3,24.3,18.5,24.3L16.4,21.9C16.4,21.9,22.8,18.5,21.6,12.3C20.1,5,14.6,4.3,12.4,4.2C10.2,4.2,4.3,5.5,3.2,11.9C1.9,18.8,8,21.9,8,21.9z" fill="#ffffff" id="shape84"/><path transform="translate(4.15,11.43)" stroke="#ffffff" d="M5.7,0C5.7,0,3.9,-0.2,3.9,1.8C3.9,3.8,3.9,4,3.9,4.1C3.9,4.1,3.9,5.2,5.3,5.3C6.6,5.5,7.2,5.7,7.2,6.9C7.2,8.1,7.2,12.5,7.2,12.5C7.2,12.5,7.4,14.4,4.8,14.8C2.3,15.1,0,15.5,0,15.5L0,16.7L16.6,16.7L16.6,15.5C16.6,15.5,11.5,14.9,11.1,14.8C10,14.4,9,13.8,9,12.5C9,11.1,9,6.9,9,6.9C9,6.9,8.8,5.5,10.6,5.4C11.6,5.3,12.2,5,12.3,4.2C12.3,3.5,12.3,1.8,12.3,1.8C12.3,1.8,12.5,0,10.6,0C8.7,0,5.7,0,5.7,0z" fill="#ffffff" id="shape85"/></g></g><g transform="translate(928.82,1795.7)"><path transform="matrix(0,1,-1,0,16,0)" stroke="#dd7195" d="M15,0L7.5,0C3.4,0,0,3.6,0,8C0,12.4,3.4,16,7.5,16L15,16" stroke-width="3" fill="#ffffff" id="shape86"/><path transform="matrix(0,1,-1,0,16,15)" stroke="#1bbc9d" d="M0,0L7.5,0C11.6,0,15,3.6,15,8C15,12.4,11.6,16,7.5,16L0,16" stroke-width="3" fill="#ffffff" id="shape87"/><text transform="matrix(0.66,-0.75,0.75,0.66,-23.9,12.2)" class="st5"><tspan x="-251.5" y="44.8">Tiangongyuan</tspan></text></g><g transform="translate(1118.3,1112.92)" id="shape88"><path stroke="#3498db" d="M0,8C0,3.6,3.6,0,8,0C12.4,0,16,3.6,16,8C16,12.4,12.4,16,8,16C3.6,16,0,12.4,0,8z" stroke-width="3" fill="#ffffff"/><text transform="matrix(0.65,-0.76,0.76,0.65,7.2,11.8)" class="st1"><tspan x="19.4" y="10.6">The Statue</tspan></text></g><g transform="translate(1293.3,1112.92)" id="shape89"><path stroke="#3498db" d="M0,8C0,3.6,3.6,0,8,0C12.4,0,16,3.6,16,8C16,12.4,12.4,16,8,16C3.6,16,0,12.4,0,8z" stroke-width="3" fill="#ffffff"/><text transform="matrix(0.65,-0.76,0.76,0.65,7.2,11.8)" class="st1"><tspan x="19.4" y="10.6">Mi Forest</tspan></text></g><g transform="translate(1147.3,1613)" id="shape90"><path stroke="#527294" d="M0,8C0,3.6,3.6,0,8,0C12.4,0,16,3.6,16,8C16,12.4,12.4,16,8,16C3.6,16,0,12.4,0,8z" stroke-width="3" fill="#ffffff"/><text class="st6"><tspan x="-69.3" y="57">Yiai Lake</tspan></text></g><g transform="translate(782.82,1802.7)" id="shape91"><path stroke="#dd7195" d="M0,8C0,3.6,3.6,0,8,0C12.4,0,16,3.6,16,8C16,12.4,12.4,16,8,16C3.6,16,0,12.4,0,8z" stroke-width="3" fill="#ffffff"/><text class="st2"><tspan x="-53.6" y="57">Ubisoft</tspan></text></g><g transform="translate(1506.82,1046)" id="shape92"><path stroke="#ee7c31" d="M0,8C0,3.6,3.6,0,8,0C12.4,0,16,3.6,16,8C16,12.4,12.4,16,8,16C3.6,16,0,12.4,0,8z" stroke-width="3" fill="#ffffff"/><text transform="matrix(0.65,-0.76,0.76,0.65,7.2,11.8)" class="st1"><tspan class="st7" x="19.4" y="-32.4">      East Sea</tspan><tspan class="st7" x="19.4" y="10.6">Development</tspan><tspan class="st7" x="19.4" y="53.6">Zone</tspan></text></g><g transform="translate(1057.82,487)" id="shape93"><path stroke="#dd7195" d="M0,8C0,3.6,3.6,0,8,0C12.4,0,16,3.6,16,8C16,12.4,12.4,16,8,16C3.6,16,0,12.4,0,8z" stroke-width="3" fill="#ffffff"/><text transform="matrix(0.65,-0.76,0.76,0.65,7.2,11.8)" class="st1"><tspan class="st8" x="19.4" y="10.6">North Yankton</tspan></text></g><g transform="translate(1057.82,1160)" id="shape94"><path stroke="#dd7195" d="M0,8C0,3.6,3.6,0,8,0C12.4,0,16,3.6,16,8C16,12.4,12.4,16,8,16C3.6,16,0,12.4,0,8z" stroke-width="3" fill="#ffffff"/><text transform="matrix(0.67,0.74,-0.74,0.67,18.6,-6.6)" class="st1"><tspan class="st8" x="19.7" y="8.6">Miwood </tspan><tspan class="st8" x="19.7" y="51.6">  Hill</tspan></text></g><g transform="translate(1251.3,326)"><path stroke="#3498db" d="M6,0L34,0C37.3,0,40,2.7,40,6L40,32C40,35.3,37.3,38,34,38L6,38C2.7,38,0,35.3,0,32L0,6C0,2.7,2.7,0,6,0z" fill="#3498db" id="shape95"/><g transform="translate(7.62,5.34)"><path stroke="#ffffff" d="M8,21.9L6.2,24.3C6.2,24.3,-1.4,20,.2,11.5C1.9,2.7,10,1.6,10,1.6C10,1.6,9.5,1.1,10.2,.5C11,-0.2,14.1,-0.1,14.5,.5C15,1.1,14.6,1.6,14.6,1.6C14.6,1.6,23,2.6,24.6,11.5C26.1,20.4,18.3,24.3,18.5,24.3L16.4,21.9C16.4,21.9,22.8,18.5,21.6,12.3C20.1,5,14.6,4.3,12.4,4.2C10.2,4.2,4.3,5.5,3.2,11.9C1.9,18.8,8,21.9,8,21.9z" fill="#ffffff" id="shape96"/><path transform="translate(4.15,11.43)" stroke="#ffffff" d="M5.7,0C5.7,0,3.9,-0.2,3.9,1.8C3.9,3.8,3.9,4,3.9,4.1C3.9,4.1,3.9,5.2,5.3,5.3C6.6,5.5,7.2,5.7,7.2,6.9C7.2,8.1,7.2,12.5,7.2,12.5C7.2,12.5,7.4,14.4,4.8,14.8C2.3,15.1,0,15.5,0,15.5L0,16.7L16.6,16.7L16.6,15.5C16.6,15.5,11.5,14.9,11.1,14.8C10,14.4,9,13.8,9,12.5C9,11.1,9,6.9,9,6.9C9,6.9,8.8,5.5,10.6,5.4C11.6,5.3,12.2,5,12.3,4.2C12.3,3.5,12.3,1.8,12.3,1.8C12.3,1.8,12.5,0,10.6,0C8.7,0,5.7,0,5.7,0z" fill="#ffffff" id="shape97"/></g></g><path transform="translate(138.03,1901)" stroke="#3498db" d="M27.3,29.7L27.3,24.1L47.4,24.1L47.4,41.7C44.3,44.2,41.1,46,37.8,47.3C34.5,48.5,31.2,49.1,27.7,49.1C23.1,49.1,18.8,48.2,15,46.2C11.2,44.2,8.3,41.3,6.4,37.5C4.4,33.7,3.4,29.5,3.4,24.8C3.4,20.2,4.4,15.9,6.3,11.8C8.3,7.8,11.1,4.9,14.7,2.9C18.3,1,22.5,0,27.2,0C30.7,0,33.8,.6,36.6,1.7C39.3,2.8,41.5,4.3,43.1,6.3C44.7,8.3,45.9,10.9,46.7,14.1L41,15.7C40.3,13.2,39.4,11.3,38.4,10C37.3,8.6,35.8,7.5,33.8,6.6C31.8,5.8,29.7,5.4,27.3,5.4C24.4,5.4,21.9,5.8,19.8,6.7C17.7,7.6,16,8.7,14.7,10.1C13.4,11.6,12.4,13.1,11.7,14.8C10.5,17.8,9.9,21,9.9,24.4C9.9,28.6,10.7,32.2,12.1,35C13.6,37.9,15.7,40,18.5,41.4C21.3,42.8,24.2,43.5,27.4,43.5C30.1,43.5,32.7,43,35.3,41.9C37.9,40.9,39.9,39.7,41.2,38.5L41.2,29.7L27.3,29.7zM78.4,44.1C76.2,45.9,74.1,47.2,72.1,48C70.1,48.7,68,49.1,65.7,49.1C61.9,49.1,59,48.2,57,46.3C55,44.5,53.9,42.1,53.9,39.3C53.9,37.6,54.3,36,55.1,34.6C55.9,33.2,56.9,32.1,58.1,31.3C59.3,30.4,60.7,29.8,62.3,29.4C63.4,29.1,65.2,28.8,67.5,28.5C72.2,27.9,75.7,27.3,77.9,26.5C77.9,25.7,77.9,25.2,77.9,25C77.9,22.6,77.4,20.9,76.3,19.9C74.8,18.6,72.6,18,69.6,18C66.9,18,64.9,18.4,63.5,19.4C62.2,20.4,61.3,22.1,60.6,24.5L54.9,23.7C55.5,21.3,56.3,19.3,57.5,17.8C58.7,16.3,60.4,15.2,62.7,14.3C64.9,13.5,67.5,13.1,70.5,13.1C73.4,13.1,75.8,13.5,77.6,14.2C79.5,14.9,80.8,15.7,81.7,16.8C82.6,17.8,83.2,19.1,83.5,20.7C83.7,21.7,83.8,23.5,83.8,26.1L83.8,33.9C83.8,39.3,83.9,42.8,84.2,44.2C84.4,45.6,84.9,47,85.6,48.3L79.5,48.3C78.9,47.1,78.6,45.7,78.4,44.1zM77.9,31.1C75.8,31.9,72.6,32.7,68.4,33.3C66,33.6,64.3,34,63.3,34.4C62.3,34.9,61.5,35.5,61,36.3C60.4,37.2,60.2,38.1,60.2,39.1C60.2,40.7,60.7,42,61.9,43C63.1,44,64.8,44.5,67.1,44.5C69.3,44.5,71.3,44.1,73.1,43.1C74.8,42.1,76.1,40.7,77,39C77.6,37.7,77.9,35.8,77.9,33.2L77.9,31.1zM92.7,48.3L92.7,.8L98.5,.8L98.5,48.3L92.7,48.3zM129.9,44.1C127.8,45.9,125.7,47.2,123.7,48C121.7,48.7,119.5,49.1,117.3,49.1C113.5,49.1,110.6,48.2,108.5,46.3C106.5,44.5,105.5,42.1,105.5,39.3C105.5,37.6,105.9,36,106.6,34.6C107.4,33.2,108.4,32.1,109.7,31.3C110.9,30.4,112.3,29.8,113.9,29.4C115,29.1,116.7,28.8,119,28.5C123.8,27.9,127.2,27.3,129.4,26.5C129.5,25.7,129.5,25.2,129.5,25C129.5,22.6,128.9,20.9,127.8,19.9C126.3,18.6,124.1,18,121.2,18C118.4,18,116.4,18.4,115.1,19.4C113.8,20.4,112.8,22.1,112.2,24.5L106.5,23.7C107,21.3,107.9,19.3,109.1,17.8C110.2,16.3,112,15.2,114.2,14.3C116.5,13.5,119.1,13.1,122,13.1C125,13.1,127.4,13.5,129.2,14.2C131,14.9,132.4,15.7,133.2,16.8C134.1,17.8,134.7,19.1,135.1,20.7C135.3,21.7,135.3,23.5,135.3,26.1L135.3,33.9C135.3,39.3,135.5,42.8,135.7,44.2C136,45.6,136.5,47,137.2,48.3L131.1,48.3C130.5,47.1,130.1,45.7,129.9,44.1zM129.4,31.1C127.3,31.9,124.2,32.7,119.9,33.3C117.5,33.6,115.8,34,114.8,34.4C113.8,34.9,113.1,35.5,112.5,36.3C112,37.2,111.7,38.1,111.7,39.1C111.7,40.7,112.3,42,113.5,43C114.7,44,116.4,44.5,118.7,44.5C120.9,44.5,122.9,44.1,124.7,43.1C126.4,42.1,127.7,40.7,128.5,39C129.1,37.7,129.4,35.8,129.4,33.2L129.4,31.1zM140.4,48.3L153,30.4L141.4,13.9L148.7,13.9L154,22C155,23.5,155.8,24.8,156.4,25.8C157.3,24.4,158.2,23.1,159,22L164.8,13.9L171.8,13.9L159.9,30.1L172.7,48.3L165.5,48.3L158.4,37.6L156.6,34.8L147.5,48.3L140.4,48.3zM177.3,61.6L176.6,56.1C177.9,56.5,179,56.6,180,56.6C181.3,56.6,182.3,56.4,183.1,56C183.9,55.6,184.5,55,185,54.2C185.4,53.6,186,52.1,186.8,49.8C186.9,49.5,187.1,49,187.3,48.4L174.2,13.9L180.5,13.9L187.7,33.8C188.6,36.4,189.4,39,190.2,41.8C190.9,39.1,191.7,36.5,192.6,34L199.9,13.9L205.8,13.9L192.7,48.9C191.3,52.7,190.2,55.3,189.4,56.7C188.4,58.7,187.2,60.1,185.8,61C184.5,61.9,182.9,62.3,181,62.3C179.9,62.3,178.7,62.1,177.3,61.6zM263.8,31.7L270.1,33.3C268.8,38.4,266.4,42.4,263,45.1C259.6,47.8,255.4,49.1,250.4,49.1C245.3,49.1,241.1,48.1,237.9,46C234.7,43.9,232.3,40.9,230.6,37C228.9,33,228.1,28.8,228.1,24.2C228.1,19.3,229,15,230.9,11.3C232.8,7.6,235.5,4.8,239,2.9C242.5,1,246.3,0,250.5,0C255.3,0,259.3,1.2,262.5,3.6C265.8,6.1,268,9.5,269.3,13.8L263.1,15.3C262,11.8,260.4,9.3,258.3,7.7C256.2,6.2,253.6,5.4,250.4,5.4C246.8,5.4,243.7,6.3,241.2,8C238.8,9.8,237.1,12.1,236.1,15.1C235.1,18,234.6,21.1,234.6,24.2C234.6,28.2,235.2,31.8,236.4,34.8C237.5,37.8,239.4,40,241.8,41.5C244.3,43,247,43.8,249.9,43.8C253.4,43.8,256.4,42.8,258.9,40.7C261.3,38.7,263,35.7,263.8,31.7zM277.1,7.5L277.1,.8L282.9,.8L282.9,7.5L277.1,7.5zM277.1,48.3L277.1,13.9L282.9,13.9L282.9,48.3L277.1,48.3zM304.5,43.1L305.3,48.3C303.7,48.6,302.2,48.8,300.9,48.8C298.8,48.8,297.2,48.5,296,47.8C294.8,47.1,294,46.2,293.5,45.1C293,44.1,292.8,41.8,292.8,38.3L292.8,18.4L288.5,18.4L288.5,13.9L292.8,13.9L292.8,5.4L298.6,1.9L298.6,13.9L304.5,13.9L304.5,18.4L298.6,18.4L298.6,38.6C298.6,40.2,298.7,41.3,298.9,41.8C299.1,42.3,299.5,42.6,299.9,42.9C300.4,43.2,301.1,43.3,301.9,43.3C302.6,43.3,303.4,43.3,304.5,43.1zM309.9,61.6L309.3,56.1C310.5,56.5,311.7,56.6,312.6,56.6C313.9,56.6,314.9,56.4,315.7,56C316.5,55.6,317.1,55,317.6,54.2C318,53.6,318.6,52.1,319.4,49.8C319.5,49.5,319.7,49,319.9,48.4L306.9,13.9L313.2,13.9L320.3,33.8C321.2,36.4,322.1,39,322.8,41.8C323.5,39.1,324.3,36.5,325.2,34L332.6,13.9L338.4,13.9L325.3,48.9C323.9,52.7,322.8,55.3,322,56.7C321,58.7,319.8,60.1,318.5,61C317.1,61.9,315.5,62.3,313.7,62.3C312.5,62.3,311.3,62.1,309.9,61.6zM4.8,125L4.8,77.4L14.3,77.4L25.5,111.1C26.6,114.2,27.3,116.6,27.8,118.1C28.4,116.4,29.2,113.8,30.3,110.5L41.7,77.4L50.2,77.4L50.2,125L44.1,125L44.1,85.2L30.3,125L24.6,125L10.9,84.5L10.9,125L4.8,125zM82.1,120.7C79.9,122.5,77.8,123.8,75.8,124.6C73.8,125.4,71.7,125.7,69.4,125.7C65.6,125.7,62.7,124.8,60.7,123C58.6,121.1,57.6,118.7,57.6,115.9C57.6,114.2,58,112.6,58.8,111.3C59.5,109.9,60.5,108.7,61.8,107.9C63,107.1,64.4,106.4,66,106C67.1,105.7,68.8,105.4,71.2,105.1C75.9,104.5,79.3,103.9,81.6,103.1C81.6,102.3,81.6,101.8,81.6,101.6C81.6,99.2,81,97.5,79.9,96.6C78.5,95.2,76.2,94.6,73.3,94.6C70.6,94.6,68.5,95.1,67.2,96C65.9,97,64.9,98.7,64.3,101.1L58.6,100.3C59.1,97.9,60,95.9,61.2,94.4C62.4,92.9,64.1,91.8,66.3,91C68.6,90.1,71.2,89.7,74.1,89.7C77.1,89.7,79.5,90.1,81.3,90.8C83.1,91.5,84.5,92.3,85.4,93.4C86.2,94.4,86.8,95.8,87.2,97.4C87.4,98.4,87.5,100.2,87.5,102.7L87.5,110.5C87.5,116,87.6,119.4,87.8,120.8C88.1,122.3,88.6,123.6,89.3,125L83.2,125C82.6,123.7,82.2,122.3,82.1,120.7zM81.6,107.7C79.4,108.5,76.3,109.3,72,109.9C69.6,110.2,67.9,110.6,66.9,111C65.9,111.5,65.2,112.1,64.6,112.9C64.1,113.8,63.8,114.7,63.8,115.7C63.8,117.3,64.4,118.6,65.6,119.6C66.8,120.6,68.5,121.2,70.8,121.2C73,121.2,75,120.7,76.8,119.7C78.5,118.7,79.8,117.4,80.6,115.6C81.3,114.3,81.6,112.4,81.6,109.8L81.6,107.7zM109.2,119.7L110,124.9C108.4,125.2,106.9,125.4,105.6,125.4C103.5,125.4,101.9,125.1,100.7,124.4C99.5,123.7,98.7,122.9,98.2,121.8C97.8,120.7,97.5,118.4,97.5,114.9L97.5,95.1L93.2,95.1L93.2,90.5L97.5,90.5L97.5,82L103.3,78.5L103.3,90.5L109.2,90.5L109.2,95.1L103.3,95.1L103.3,115.2C103.3,116.9,103.4,117.9,103.6,118.4C103.8,118.9,104.2,119.3,104.6,119.5C105.1,119.8,105.8,120,106.6,120C107.3,120,108.1,119.9,109.2,119.7zM114.8,125L114.8,90.5L120.1,90.5L120.1,95.7C121.4,93.3,122.7,91.7,123.8,90.9C124.9,90.1,126.2,89.7,127.5,89.7C129.5,89.7,131.5,90.4,133.5,91.6L131.5,97C130.1,96.2,128.7,95.8,127.2,95.8C126,95.8,124.8,96.2,123.8,96.9C122.8,97.7,122.1,98.8,121.6,100.1C121,102.2,120.7,104.5,120.7,106.9L120.7,125L114.8,125zM134.8,107.7C134.8,101.4,136.6,96.6,140.1,93.6C143.1,91,146.7,89.7,151,89.7C155.7,89.7,159.6,91.3,162.6,94.4C165.6,97.5,167.1,101.8,167.1,107.3C167.1,111.7,166.4,115.2,165.1,117.7C163.8,120.2,161.8,122.2,159.3,123.6C156.7,125,154,125.7,151,125.7C146.1,125.7,142.3,124.2,139.3,121.1C136.3,118,134.8,113.6,134.8,107.7zM140.8,107.7C140.8,112.1,141.8,115.4,143.7,117.6C145.6,119.8,148.1,120.9,151,120.9C153.9,120.9,156.3,119.8,158.2,117.6C160.1,115.4,161.1,112.1,161.1,107.5C161.1,103.3,160.1,100.1,158.2,97.9C156.2,95.7,153.8,94.6,151,94.6C148.1,94.6,145.6,95.7,143.7,97.8C141.8,100,140.8,103.3,140.8,107.7zM192.9,125L192.9,77.4L202.3,77.4L213.6,111.1C214.6,114.2,215.4,116.6,215.8,118.1C216.4,116.4,217.2,113.8,218.4,110.5L229.7,77.4L238.2,77.4L238.2,125L232.1,125L232.1,85.2L218.3,125L212.7,125L198.9,84.5L198.9,125L192.9,125zM270.1,120.7C267.9,122.5,265.8,123.8,263.8,124.6C261.8,125.4,259.7,125.7,257.4,125.7C253.6,125.7,250.7,124.8,248.7,123C246.6,121.1,245.6,118.7,245.6,115.9C245.6,114.2,246,112.6,246.8,111.3C247.5,109.9,248.6,108.7,249.8,107.9C251,107.1,252.4,106.4,254,106C255.1,105.7,256.9,105.4,259.2,105.1C264.4,104.5,267.4,103.9,269.6,103.1C269.6,102.3,269.6,101.8,269.6,101.6C269.6,99.2,269.1,97.5,268,96.6C266.5,95.2,264.4,94.6,261.3,94.6C258.6,94.6,256.5,95.1,255.2,96C253.9,97,253,98.7,252.3,101.1L246.6,100.3C247.2,97.9,248,95.9,249.2,94.4C250.4,92.9,252.1,91.8,254.3,91C256.6,90.1,259.2,89.7,262.2,89.7C265.1,89.7,267.5,90.1,269.3,90.8C271.2,91.5,272.5,92.3,273.4,93.4C274.2,94.4,274.8,95.8,275.2,97.4C275.4,98.4,275.5,100.2,275.5,102.7L275.5,110.5C275.5,116,275.6,119.4,275.9,120.8C276.1,122.3,276.6,123.6,277.3,125L271.2,125C270.6,123.7,270.2,122.3,270.1,120.7zM269.6,107.7C267.5,108.5,264.4,109.3,260.1,109.9C257.7,110.2,256,110.6,255,111C254,111.5,253.2,112.1,252.7,112.9C252.1,113.8,251.9,114.7,251.9,115.7C251.9,117.3,252.4,118.6,253.6,119.6C254.8,120.6,256.5,121.2,258.8,121.2C261,121.2,263,120.7,264.4,119.7C266.5,118.7,267.8,117.4,268.6,115.6C269.3,114.3,269.6,112.4,269.6,109.8L269.6,107.7zM284.5,138.1L284.5,90.5L289.8,90.5L289.8,95C291,93.2,292.5,91.9,294,91.1C295.6,90.2,297.5,89.7,299.8,89.7C302.7,89.7,305.3,90.5,307.6,92C309.8,93.5,311.5,95.7,312.6,98.4C313.8,101.2,314.4,104.2,314.4,107.5C314.4,111,313.7,114.2,312.5,117C311.2,119.8,309.4,122,307,123.5C304.5,125,302,125.7,299.4,125.7C297.4,125.7,295.7,125.3,294.1,124.5C292.6,123.7,291.3,122.6,290.3,121.4L290.3,138.1L284.5,138.1zM289.8,107.9C289.8,112.4,290.7,115.6,292.5,117.8C294.2,119.9,296.4,120.9,299,120.9C301.6,120.9,303.8,119.8,305.6,117.6C307.5,115.4,308.4,112,308.4,107.4C308.4,103.1,307.5,99.8,305.7,97.6C303.9,95.4,301.7,94.3,299.2,94.3C296.7,94.3,294.5,95.5,292.6,97.8C290.7,100.1,289.8,103.5,289.8,107.9zM24.5,153.2C28.6,153.2,32.6,154.3,36.5,156.4C40.4,158.5,43.5,161.5,45.6,165.4C47.8,169.4,48.9,173.4,48.9,177.7C48.9,181.9,47.8,186,45.7,189.9C43.5,193.8,40.5,196.8,36.7,198.9C32.8,201.1,28.7,202.1,24.5,202.1C20.2,202.1,16.2,201.1,12.3,198.9C8.4,196.8,5.4,193.8,3.2,189.9C1.1,186,0,181.9,0,177.7C0,173.4,1.1,169.4,3.3,165.4C5.5,161.5,8.5,158.5,12.4,156.4C16.4,154.3,20.4,153.2,24.5,153.2zM24.5,157.3C21,157.3,17.7,158.2,14.4,159.9C11.2,161.7,8.6,164.2,6.8,167.5C5,170.7,4.1,174.2,4.1,177.7C4.1,181.2,5,184.6,6.8,187.8C8.6,191.1,11.1,193.6,14.3,195.4C17.6,197.2,21,198.1,24.5,198.1C28,198.1,31.4,197.2,34.6,195.4C37.9,193.6,40.4,191.1,42.2,187.8C44,184.6,44.9,181.2,44.9,177.7C44.9,174.2,44,170.7,42.1,167.5C40.3,164.2,37.8,161.7,34.5,159.9C31.2,158.2,27.9,157.3,24.5,157.3zM32.3,181.7L36.3,182.8C35.7,185.5,34.3,187.7,32.2,189.3C30.1,190.9,27.5,191.7,24.5,191.7C20.7,191.7,17.6,190.5,15.2,188C12.9,185.5,11.7,182.1,11.7,177.8C11.7,174.9,12.2,172.4,13.3,170.3C14.4,168.2,15.9,166.6,17.9,165.6C19.9,164.5,22.2,164,24.8,164C27.6,164,30,164.6,31.9,166C33.8,167.4,35.1,169.3,35.8,171.6L32,172.5C31.3,170.9,30.4,169.7,29.1,168.9C27.8,168,26.3,167.6,24.6,167.6C22.2,167.6,20.1,168.5,18.5,170.2C16.9,172,16.1,174.6,16.1,177.9C16.1,181.2,16.8,183.7,18.4,185.4C19.9,187.1,21.9,187.9,24.3,187.9C26.2,187.9,27.9,187.4,29.4,186.2C30.9,185.1,31.8,183.6,32.3,181.7zM72.2,201.6L72.2,154L81.7,154L92.9,187.7C93.9,190.8,94.7,193.2,95.2,194.7C95.7,193,96.6,190.5,97.7,187.1L109.1,154L117.5,154L117.5,201.6L111.5,201.6L111.5,161.8L97.7,201.6L92,201.6L78.2,161.1L78.2,201.6L72.2,201.6zM127,160.7L127,154L132.8,154L132.8,160.7L127,160.7zM127,201.6L127,167.1L132.8,167.1L132.8,201.6L127,201.6zM141.6,201.6L141.6,167.1L146.8,167.1L146.8,172C147.9,170.3,149.4,168.9,151.2,167.9C152.9,166.9,155,166.4,157.3,166.4C159.8,166.4,161.9,166.9,163.6,167.9C165.2,169,166.3,170.5,167,172.4C169.7,168.4,173.3,166.4,177.6,166.4C181.1,166.4,183.7,167.3,185.5,169.2C187.4,171.1,188.3,174,188.3,177.9L188.3,201.6L182.5,201.6L182.5,179.9C182.5,177.5,182.3,175.9,181.9,174.8C181.5,173.8,180.8,173,179.8,172.4C178.9,171.7,177.7,171.4,176.3,171.4C173.9,171.4,171.9,172.2,170.3,173.8C168.7,175.4,167.9,178,167.9,181.6L167.9,201.6L162.1,201.6L162.1,179.2C162.1,176.6,161.6,174.7,160.7,173.4C159.7,172.1,158.1,171.4,156,171.4C154.3,171.4,152.8,171.8,151.4,172.7C150,173.6,149,174.8,148.4,176.5C147.8,178.2,147.5,180.6,147.5,183.7L147.5,201.6L141.6,201.6zM197,160.7L197,154L202.8,154L202.8,160.7L197,160.7zM197,201.6L197,167.1L202.8,167.1L202.8,201.6L197,201.6zM259.1,196L259.1,201.6L227.7,201.6C227.6,200.2,227.9,198.8,228.4,197.5C229.2,195.4,230.4,193.3,232.2,191.2C234,189.1,236.5,186.7,239.8,184C245,179.8,248.5,176.4,250.3,173.9C252.1,171.5,253,169.1,253,166.9C253,164.6,252.2,162.6,250.6,161.1C248.9,159.5,246.7,158.7,244.1,158.7C241.3,158.7,239,159.5,237.3,161.2C235.7,162.9,234.8,165.2,234.8,168.2L228.8,167.6C229.2,163.1,230.7,159.7,233.4,157.4C236.1,155,239.7,153.8,244.2,153.8C248.8,153.8,252.4,155.1,255,157.6C257.7,160.2,259,163.3,259,167C259,168.9,258.6,170.8,257.9,172.6C257.1,174.5,255.8,176.4,254,178.4C252.2,180.5,249.2,183.3,245,186.8C241.5,189.8,239.2,191.7,238.3,192.8C237.3,193.8,236.4,194.9,235.8,196L259.1,196zM265.3,178.1C265.3,172.5,265.9,168,267,164.6C268.2,161.1,269.9,158.5,272.2,156.6C274.5,154.8,277.3,153.8,280.8,153.8C283.3,153.8,285.6,154.4,287.5,155.4C289.4,156.4,291,157.9,292.3,159.8C293.5,161.8,294.5,164.1,295.2,166.9C295.9,169.7,296.3,173.4,296.3,178.1C296.3,183.7,295.7,188.2,294.6,191.6C293.4,195.1,291.7,197.7,289.4,199.6C287.2,201.4,284.3,202.4,280.8,202.4C276.2,202.4,272.6,200.7,270,197.4C266.9,193.5,265.3,187.1,265.3,178.1zM271.3,178.1C271.3,185.9,272.2,191.1,274,193.7C275.9,196.3,278.1,197.6,280.8,197.6C283.5,197.6,285.7,196.3,287.6,193.7C289.4,191.1,290.3,185.9,290.3,178.1C290.3,170.3,289.4,165.1,287.6,162.5C285.7,160,283.5,158.7,280.7,158.7C278,158.7,275.9,159.8,274.3,162.1C272.3,165,271.3,170.3,271.3,178.1zM324.1,201.6L318.3,201.6L318.3,164.4C316.9,165.7,315.1,167.1,312.8,168.4C310.5,169.7,308.5,170.7,306.6,171.4L306.6,165.8C309.9,164.2,312.8,162.4,315.2,160.2C317.6,158,319.4,155.9,320.4,153.8L324.1,153.8L324.1,201.6zM339.4,160.3L339.4,154.7L370.2,154.7L370.2,159.2C367.2,162.4,364.2,166.7,361.2,172C358.2,177.4,355.9,182.9,354.3,188.5C353.1,192.5,352.4,196.8,352.1,201.6L346.1,201.6C346.1,197.8,346.9,193.3,348.3,188C349.7,182.7,351.7,177.6,354.3,172.7C356.9,167.8,359.7,163.6,362.7,160.3L339.4,160.3zM38.9,261.5L45.2,263.1C43.9,268.3,41.5,272.2,38.1,274.9C34.7,277.6,30.5,279,25.5,279C20.4,279,16.3,277.9,13,275.9C9.8,273.8,7.4,270.8,5.7,266.8C4,262.8,3.2,258.6,3.2,254.1C3.2,249.1,4.2,244.8,6,241.1C7.9,237.4,10.6,234.6,14.1,232.7C17.6,230.8,21.5,229.8,25.6,229.8C30.4,229.8,34.4,231,37.6,233.5C40.9,235.9,43.1,239.3,44.4,243.7L38.2,245.1C37.1,241.7,35.5,239.2,33.4,237.6C31.3,236,28.7,235.2,25.5,235.2C21.9,235.2,18.8,236.1,16.4,237.8C13.9,239.6,12.2,241.9,11.2,244.9C10.2,247.8,9.7,250.9,9.7,254C9.7,258.1,10.3,261.6,11.5,264.6C12.6,267.6,14.5,269.9,17,271.4C19.4,272.9,22.1,273.6,25,273.6C28.6,273.6,31.5,272.6,34,270.6C36.4,268.5,38.1,265.5,38.9,261.5zM86.8,261.5L93.1,263.1C91.8,268.3,89.4,272.2,86,274.9C82.6,277.6,78.4,279,73.4,279C68.3,279,64.1,277.9,60.9,275.9C57.7,273.8,55.3,270.8,53.6,266.8C51.9,262.8,51.1,258.6,51.1,254.1C51.1,249.1,52,244.8,53.9,241.1C55.8,237.4,58.5,234.6,62,232.7C65.5,230.8,69.3,229.8,73.5,229.8C78.3,229.8,82.3,231,85.5,233.5C88.8,235.9,91,239.3,92.3,243.7L86.1,245.1C85,241.7,83.4,239.2,81.3,237.6C79.2,236,76.6,235.2,73.4,235.2C69.7,235.2,66.7,236.1,64.2,237.8C61.8,239.6,60.1,241.9,59.1,244.9C58.1,247.8,57.6,250.9,57.6,254C57.6,258.1,58.2,261.6,59.3,264.6C60.5,267.6,62.4,269.9,64.8,271.4C67.3,272.9,70,273.6,72.9,273.6C76.4,273.6,79.4,272.6,81.9,270.6C84.3,268.5,86,265.5,86.8,261.5zM119,278.2L119,230.6L136.8,230.6C140.4,230.6,143.3,231.1,145.5,232.1C147.7,233.1,149.4,234.5,150.7,236.5C151.9,238.5,152.6,240.6,152.6,242.8C152.6,244.8,152,246.8,150.9,248.5C149.8,250.3,148.1,251.8,145.9,252.9C148.8,253.7,151,255.2,152.5,257.2C154.1,259.2,154.9,261.6,154.9,264.4C154.9,266.6,154.4,268.7,153.4,270.6C152.5,272.5,151.3,274,150,275C148.6,276.1,146.8,276.9,144.8,277.4C142.7,277.9,140.1,278.2,137.1,278.2L119,278.2zM125.3,250.6L135.5,250.6C138.3,250.6,140.3,250.4,141.5,250.1C143.1,249.6,144.3,248.8,145.1,247.7C146,246.6,146.4,245.2,146.4,243.6C146.4,242,146,240.6,145.2,239.4C144.5,238.2,143.4,237.4,142,236.9C140.6,236.5,138.2,236.3,134.8,236.3L125.3,236.3L125.3,250.6zM125.3,272.6L137.1,272.6C139.1,272.6,140.5,272.5,141.4,272.3C142.8,272.1,144,271.7,145,271C146,270.4,146.8,269.6,147.4,268.4C148,267.2,148.3,265.9,148.3,264.4C148.3,262.6,147.9,261.1,147,259.8C146.1,258.5,144.8,257.6,143.2,257C141.6,256.5,139.3,256.2,136.2,256.2L125.3,256.2L125.3,272.6zM176.8,278.2L176.8,258L158.5,230.6L166.2,230.6L175.5,245C177.3,247.7,178.9,250.3,180.4,253C181.8,250.5,183.5,247.7,185.5,244.6L194.8,230.6L202.1,230.6L183.1,258L183.1,278.2L176.8,278.2zM198.6,263.9L198.6,258L216.5,258L216.5,263.9L198.6,263.9zM223.6,278.2L223.6,230.6L230.1,230.6L255,268L255,230.6L261.1,230.6L261.1,278.2L254.6,278.2L229.7,240.8L229.7,278.2L223.6,278.2zM305.5,261.5L311.8,263.1C310.5,268.3,308.1,272.2,304.7,274.9C301.2,277.6,297,279,292.1,279C287,279,282.8,277.9,279.6,275.9C276.4,273.8,273.9,270.8,272.3,266.8C270.6,262.8,269.8,258.6,269.8,254.1C269.8,249.1,270.7,244.8,272.6,241.1C274.5,237.4,277.2,234.6,280.7,232.7C284.2,230.8,288,229.8,292.2,229.8C296.9,229.8,300.9,231,304.2,233.5C307.4,235.9,309.7,239.3,311,243.7L304.8,245.1C303.7,241.7,302.1,239.2,300,237.6C297.9,236,295.2,235.2,292.1,235.2C288.4,235.2,285.4,236.1,282.9,237.8C280.5,239.6,278.7,241.9,277.7,244.9C276.7,247.8,276.2,250.9,276.2,254C276.2,258.1,276.8,261.6,278,264.6C279.2,267.6,281,269.9,283.5,271.4C286,272.9,288.7,273.6,291.6,273.6C295.1,273.6,298.1,272.6,300.5,270.6C303,268.5,304.6,265.5,305.5,261.5zM316.4,263.9L316.4,258L334.4,258L334.4,263.9L316.4,263.9zM339.4,262.9L345.4,262.4C345.6,264.8,346.3,266.7,347.3,268.2C348.3,269.8,349.9,271,352.1,271.9C354.3,272.9,356.7,273.3,359.4,273.3C361.8,273.3,363.9,273,365.7,272.3C367.6,271.6,369,270.6,369.9,269.3C370.7,268.1,371.2,266.7,371.2,265.3C371.2,263.8,370.8,262.5,369.9,261.4C369,260.3,367.6,259.3,365.6,258.6C364.3,258.1,361.5,257.3,357.2,256.2C352.8,255.2,349.7,254.2,348,253.3C345.7,252.1,344,250.6,342.9,248.9C341.8,247.1,341.2,245.1,341.2,242.9C341.2,240.5,341.9,238.3,343.3,236.2C344.6,234.1,346.6,232.5,349.2,231.5C351.9,230.4,354.8,229.8,358,229.8C361.5,229.8,364.6,230.4,367.3,231.5C370,232.7,372,234.3,373.5,236.5C374.9,238.8,375.7,241.3,375.8,244L369.8,244.5C369.5,241.5,368.4,239.2,366.5,237.7C364.6,236.1,361.9,235.4,358.2,235.4C354.4,235.4,351.7,236.1,349.9,237.5C348.2,238.9,347.3,240.5,347.3,242.5C347.3,244.2,347.9,245.6,349.1,246.7C350.4,247.8,353.5,249,358.6,250.1C363.7,251.3,367.3,252.3,369.2,253.1C371.9,254.4,374,256,375.3,258C376.6,260,377.3,262.2,377.3,264.8C377.3,267.3,376.5,269.7,375.1,271.9C373.6,274.1,371.6,275.9,368.8,277.1C366.1,278.4,363.1,279,359.7,279C355.4,279,351.8,278.4,348.9,277.1C346,275.9,343.7,274,342,271.5C340.4,268.9,339.5,266.1,339.4,262.9zM380.6,278.2L398.8,230.6L405.6,230.6L425,278.2L417.9,278.2L412.3,263.8L392.5,263.8L387.2,278.2L380.6,278.2zM394.3,258.7L410.4,258.7L405.4,245.5C403.9,241.5,402.8,238.2,402.1,235.6C401.4,238.7,400.6,241.7,399.5,244.7L394.3,258.7zM461.2,278.2L461.2,266.8L440.6,266.8L440.6,261.4L462.2,230.6L467,230.6L467,261.4L473.4,261.4L473.4,266.8L467,266.8L467,278.2L461.2,278.2zM461.2,261.4L461.2,240L446.3,261.4L461.2,261.4zM482.6,278.2L482.6,271.5L489.3,271.5L489.3,278.2L482.6,278.2zM497.8,254.7C497.8,249.1,498.3,244.6,499.5,241.2C500.7,237.7,502.4,235.1,504.7,233.2C506.9,231.4,509.8,230.5,513.3,230.5C515.8,230.5,518.1,231,520,232C521.9,233,523.5,234.5,524.7,236.4C526,238.4,527,240.7,527.7,243.5C528.8,246.3,528.8,250,528.8,254.7C528.8,260.3,528.2,264.8,527,268.2C525.9,271.7,524.2,274.3,521.9,276.2C519.6,278.1,516.7,279,513.3,279C508.7,279,505.1,277.3,502.5,274.1C499.3,270.1,497.8,263.7,497.8,254.7zM503.8,254.7C503.8,262.5,504.7,267.7,506.5,270.3C508.3,272.9,510.6,274.2,513.3,274.2C515.9,274.2,518.2,272.9,520,270.3C521.9,267.7,522.8,262.5,522.8,254.7C522.8,246.9,521.9,241.7,520,239.1C518.2,236.6,515.9,235.3,513.2,235.3C510.5,235.3,508.4,236.4,506.8,238.7C504.8,241.6,503.8,246.9,503.8,254.7z" fill="#3498db" id="shape98"/><g transform="translate(1318,1862)" id="shape99"><path stroke="#1bbc9d" d="M0,8C0,3.6,3.6,0,8,0C12.4,0,16,3.6,16,8C16,12.4,12.4,16,8,16C3.6,16,0,12.4,0,8z" stroke-width="3" fill="#ffffff"/><text class="st1"><tspan class="st9" x="24" y="20.5">Dusseldorf</tspan></text></g><g transform="translate(138.03,1651.91)"><path transform="translate(44.83,40.5)" stroke="#624d44" d="M63.3,0L57,56.5L0,62.8L57,69.1L63.3,125.6L69.6,69.1L126.6,62.8L69.6,56.5L63.3,0z" fill="#624d44" id="shape100"/><path transform="translate(94.9,0)" stroke="#f16b6c" d="M0,31.9L0,0L6.6,0L20.2,21.3L20.2,0L26.5,0L26.5,31.9L19.7,31.9L6.3,11.1L6.3,31.9L0,31.9z" fill="#f06b6c" id="shape101"/><path transform="translate(0,88.54)" stroke="#85ba84" d="M7.3,29.5L0,0L6.3,0L10.9,20.3L16.5,0L23.9,0L29.3,20.6L33.9,0L40.2,0L32.7,29.5L26.2,29.5L20.1,7.4L14,29.5L7.3,29.5z" fill="#84ba82" id="shape102"/><path transform="translate(183.31,86.85)" stroke="#fec200" d="M0,32.9L0,0L25.1,0L25.1,5.6L6.8,5.6L6.8,12.9L23.9,12.9L23.9,18.4L6.8,18.4L6.8,27.3L25.8,27.3L25.8,32.9L0,32.9z" fill="#fec200" id="shape103"/><path transform="translate(93.63,172.13)" stroke="#4f8da2" d="M0,24.7L7,24C7.4,26.4,8.3,28.1,9.6,29.2C10.8,30.3,12.6,30.9,14.8,30.9C17.1,30.9,18.8,30.4,20,29.4C21.2,28.4,21.8,27.3,21.8,25.9C21.8,25.1,21.5,24.4,21,23.8C20.5,23.2,19.7,22.7,18.4,22.2C17.6,21.9,15.7,21.4,12.7,20.7C8.8,19.7,6.1,18.5,4.6,17.1C2.4,15.2,1.3,12.8,1.3,9.9C1.3,8.1,1.8,6.4,2.8,4.8C3.9,3.2,5.3,2,7.3,1.2C9.2,.4,11.5,-0,14.3,-0C18.8,-0,22.1,.9,24.4,2.9C26.7,4.9,27.8,7.5,28,10.8L20.8,11.1C20.4,9.3,19.8,7.9,18.8,7.1C17.8,6.3,16.2,5.9,14.2,5.9C12.1,5.9,10.5,6.4,9.3,7.2C8.5,7.8,8.2,8.5,8.2,9.4C8.2,10.3,8.5,11,9.2,11.6C10.1,12.4,12.3,13.2,15.8,14C19.3,14.8,21.9,15.7,23.6,16.6C25.3,17.5,26.6,18.7,27.6,20.2C28.5,21.8,29,23.7,29,25.9C29,28,28.4,29.9,27.3,31.7C26.1,33.5,24.5,34.8,22.5,35.7C20.4,36.5,17.8,37,14.7,37C10.2,37,6.7,35.9,4.3,33.8C1.9,31.7,.5,28.7,0,24.7z" fill="#4f8da2" id="shape104"/><g transform="translate(86.11,81.44)"><path stroke="#46362f" d="M0,21.8C0,9.8,9.9,0,22,0C34.2,0,44.1,9.8,44.1,21.8C44.1,33.9,34.2,43.7,22,43.7C9.9,43.7,0,33.9,0,21.8z" fill="#46362f" id="shape105"/><path transform="translate(4.05,4.02)" stroke="#624d44" d="M0,17.8C0,8,8.1,0,18,0C27.9,0,36,8,36,17.8C36,27.7,27.9,35.7,18,35.7C8.1,35.7,0,27.7,0,17.8z" fill="#624d44" id="shape106"/><path transform="translate(15.54,15.41)" stroke="#7e726d" d="M0,6.4C0,2.9,2.9,0,6.5,0C10.1,0,13,2.9,13,6.4C13,10,10.1,12.9,6.5,12.9C2.9,12.9,0,10,0,6.4z" fill="#7e726d" id="shape107"/></g></g></g></svg>
